
        <svg xmlns="http://www.w3.org/2000/svg" xmlns:xlink="http://www.w3.org/1999/xlink" version="1.1" width="3187.5" 
        height="1124.999922524298" viewBox="0 0 3187.5 1124.999922524298">
			<rect fill="#fcfcfc" width="3187.5" height="1124.999922524298"/>
			<g transform="scale(9.375) translate(10, 10)">
				<defs id="SvgjsDefs1990"></defs><g id="SvgjsG1991" featureKey="symbolFeature-0" transform="matrix(1.0831888222106598,0,0,1.0831888222106598,-4.159445242570431,-4.159450149364889)" fill="#111111"><title xmlns="http://www.w3.org/2000/svg">Artboard 4</title><path xmlns="http://www.w3.org/2000/svg" d="M53.88,25.92,51,43.46,63.35,44l.38,0a3.26,3.26,0,0,1,2.35,1.7,3.21,3.21,0,0,1,0,2.9L50.61,78.3a2.39,2.39,0,0,1-4.49-1.47L49,59.26l-12.37-.57-.38,0a3.26,3.26,0,0,1-2.34-1.7,3.22,3.22,0,0,1,0-2.9L49.37,24.44a2.41,2.41,0,0,1,4.51,1.48Zm-37.35-.74a4.77,4.77,0,1,0,1.74,6.51A4.77,4.77,0,0,0,16.53,25.18Zm8.64-8.64A4.76,4.76,0,1,0,26.9,10,4.75,4.75,0,0,0,25.17,16.54ZM50,96.16A46.16,46.16,0,1,0,50,3.84a4.76,4.76,0,0,0,0,9.53A36.63,36.63,0,1,1,13.37,50a4.76,4.76,0,1,0-9.53,0A46.21,46.21,0,0,0,50,96.16Z"></path></g><g id="SvgjsG1992" featureKey="nameFeature-0" transform="matrix(1.6778637754648777,0,0,1.6778637754648777,115.73973740238853,6.780229057489414)" fill="#111111"><path d="M16.543 12.050999999999998 l-9.7656 12.129 l0 -12.129 l-4.2383 0 l0 27.949 l4.2383 0 l0 -9.043 l1.3086 -1.6211 l8.7695 10.664 l5.5078 0 l-11.563 -14.043 l11.172 -13.906 l-5.4297 0 z M41.914375 12.050999999999998 l-17.676 27.949 l5.0195 0 l4.1211 -6.5234 l9.4922 0 l0 6.5234 l4.2578 0 l0 -27.949 l-5.2148 0 z M42.871375 18.477 l0 10.762 l-6.8164 0 z M67.98878125 12.050999999999998 l0 19.98 l-11.934 -19.98 l-4.4336 0 l0 27.949 l4.2383 0 l0 -19.98 l11.953 19.98 l4.4336 0 l0 -27.949 l-4.2578 0 z M75.68360625 12.050999999999998 l0 4.2383 l5.918 0 l0 23.711 l4.2578 0 l0 -23.711 l5.918 0 l0 -4.2383 l-16.094 0 z M107.48078125 12.050999999999998 l-17.676 27.949 l5.0195 0 l4.1211 -6.5234 l9.4922 0 l0 6.5234 l4.2578 0 l0 -27.949 l-5.2148 0 z M108.43778125 18.477 l0 10.762 l-6.8164 0 z M121.7382875 12.09 l-4.2383 0 l0 27.91 l4.2383 0 l0 -27.91 z"></path></g>
			</g>
		</svg>
	